<?xml version="1.0" encoding="utf-8"?>
<!-- Generated by IcoMoon.io -->
<!DOCTYPE svg PUBLIC "-//W3C//DTD SVG 1.1//EN" "http://www.w3.org/Graphics/SVG/1.1/DTD/svg11.dtd">

<svg version="1.1" xmlns="http://www.w3.org/2000/svg" xmlns:xlink="http://www.w3.org/1999/xlink" width="30" height="32" viewBox="0 0 30 32">
<defs>
<g id="icon-untitled">
	<path class="path1" d="M3.254 13.25q-0.821-0.464-1.063-1.384t0.223-1.741l1.143-1.964q0.464-0.821 1.384-1.063t1.741 0.223l4.75 2.732v-5.482q0-0.929 0.679-1.607t1.607-0.679h2.286q0.929 0 1.607 0.679t0.679 1.607v5.482l4.75-2.732q0.821-0.464 1.741-0.223t1.384 1.063l1.143 1.964q0.464 0.821 0.223 1.741t-1.063 1.384l-4.75 2.75 4.75 2.75q0.821 0.464 1.063 1.384t-0.223 1.741l-1.143 1.964q-0.464 0.821-1.384 1.063t-1.741-0.223l-4.75-2.732v5.482q0 0.929-0.679 1.607t-1.607 0.679h-2.286q-0.929 0-1.607-0.679t-0.679-1.607v-5.482l-4.75 2.732q-0.821 0.464-1.741 0.223t-1.384-1.063l-1.143-1.964q-0.464-0.821-0.223-1.741t1.063-1.384l4.75-2.75z"></path>
</g>
</defs>

<g fill="#000000">
	<use xlink:href="#icon-untitled" transform="translate(0 0)"></use>
</g>

</svg>
